<?xml version="1.0" standalone="no"?>
<!DOCTYPE svg PUBLIC "-//W3C//DTD SVG 20010904//EN"
 "http://www.w3.org/TR/2001/REC-SVG-20010904/DTD/svg10.dtd">
<svg version="1.0" xmlns="http://www.w3.org/2000/svg"
 width="1000.000000pt" height="1000.000000pt" viewBox="0 0 1000.000000 1000.000000"
 preserveAspectRatio="xMidYMid meet">
<metadata>
Created by potrace 1.14, written by Peter Selinger 2001-2017
</metadata>
<g transform="translate(0.000000,1000.000000) scale(0.100000,-0.100000)"
fill="#000000" stroke="none">
<path d="M4585 8673 c-416 -34 -615 -60 -904 -118 -1310 -263 -2426 -915
-3082 -1800 -321 -434 -522 -924 -584 -1426 -20 -162 -20 -496 0 -658 72 -577
317 -1118 734 -1616 105 -126 354 -373 491 -487 301 -250 616 -452 985 -633
646 -317 1332 -507 2130 -592 138 -15 257 -18 640 -18 467 0 538 3 845 41 986
120 1938 478 2661 1000 267 192 599 500 782 725 395 486 631 1013 701 1567 21
165 21 519 0 684 -70 553 -308 1086 -701 1567 -108 132 -385 410 -518 520
-866 717 -2011 1148 -3300 1241 -126 9 -781 12 -880 3z"/>
</g>
</svg>
